<svg xmlns="http://www.w3.org/2000/svg" xmlns:svg="http://www.w3.org/2000/svg" id="svg2" width="744.094" height="1052.362" version="1.1"><defs id="defs4"><marker id="Arrow1Lstart" orient="auto" refX="0" refY="0" style="overflow:visible"><path id="path3853" d="M 0.0,0.0 L 5.0,-5.0 L -12.5,0.0 L 5.0,5.0 L 0.0,0.0 z" transform="scale(0.8) translate(12.5,0)" style="fill-rule:evenodd;stroke:#000;stroke-width:1pt;marker-start:none"/></marker><marker id="Arrow1Lend" orient="auto" refX="0" refY="0" style="overflow:visible"><path id="path3856" d="M 0.0,0.0 L 5.0,-5.0 L -12.5,0.0 L 5.0,5.0 L 0.0,0.0 z" transform="scale(0.8) rotate(180) translate(12.5,0)" style="fill-rule:evenodd;stroke:#000;stroke-width:1pt;marker-start:none"/></marker><marker id="Arrow1Lend-2" orient="auto" refX="0" refY="0" style="overflow:visible"><path id="path3856-5" d="M 0,0 5,-5 -12.5,0 5,5 0,0 z" transform="matrix(-0.8,0,0,-0.8,-10,0)" style="fill-rule:evenodd;stroke:#000;stroke-width:1pt;marker-start:none"/></marker><marker id="Arrow1Lstart-3" orient="auto" refX="0" refY="0" style="overflow:visible"><path id="path3853-7" d="M 0,0 5,-5 -12.5,0 5,5 0,0 z" transform="matrix(0.8,0,0,0.8,10,0)" style="fill-rule:evenodd;stroke:#000;stroke-width:1pt;marker-start:none"/></marker><marker id="Arrow1Lstart-4" orient="auto" refX="0" refY="0" style="overflow:visible"><path id="path3853-1" d="M 0,0 5,-5 -12.5,0 5,5 0,0 z" transform="matrix(0.8,0,0,0.8,10,0)" style="fill-rule:evenodd;stroke:#000;stroke-width:1pt;marker-start:none"/></marker></defs><metadata id="metadata7"/><g id="layer1"><flowRoot id="flowRoot3761" xml:space="preserve" style="fill:#000;stroke:none;stroke-opacity:1;stroke-width:1px;stroke-linejoin:miter;stroke-linecap:butt;fill-opacity:1;font-family:Sans;font-style:normal;font-weight:400;font-size:40px;line-height:125%;letter-spacing:0;word-spacing:0"><flowRegion id="flowRegion3763"><rect id="rect3765" width="268.571" height="47.143" x="-165.714" y="192.362"/></flowRegion><flowPara id="flowPara3767"/></flowRoot><g id="g4764" transform="matrix(0.58677243,0,0,0.58677243,71.707854,426.07729)"><path id="path2991" d="m 287.14286,292.36218 c 0,46.54972 -37.736,84.28572 -84.28571,84.28572 -46.54972,0 -84.28572,-37.736 -84.28572,-84.28572 0,-46.54971 37.736,-84.28571 84.28572,-84.28571 46.54971,0 84.28571,37.736 84.28571,84.28571 z" transform="matrix(0.64172294,0,0,0.64172294,380.42718,117.98153)" style="fill:none;stroke:#000;stroke-width:31;stroke-linecap:butt;stroke-linejoin:miter;stroke-miterlimit:4;stroke-opacity:1;stroke-dasharray:none"/><path id="path3779" d="m 478.15242,304.68031 65.08904,0 0,0 0,0" style="fill:none;stroke:#000;stroke-width:11.35849667;stroke-linecap:butt;stroke-linejoin:miter;stroke-miterlimit:4;stroke-opacity:1;stroke-dasharray:none"/></g><g id="g4773" transform="matrix(0.58677243,0,0,0.58677243,148.42581,346.72615)"><path id="path2991-1" d="m 287.14286,292.36218 c 0,46.54972 -37.736,84.28572 -84.28571,84.28572 -46.54972,0 -84.28572,-37.736 -84.28572,-84.28572 0,-46.54971 37.736,-84.28571 84.28572,-84.28571 46.54971,0 84.28571,37.736 84.28571,84.28571 z" transform="matrix(0.64172294,0,0,0.64172294,249.6815,-17.647406)" style="fill:none;stroke:#000;stroke-width:31;stroke-linecap:butt;stroke-linejoin:miter;stroke-miterlimit:4;stroke-opacity:1;stroke-dasharray:none"/><path id="path3779-1" d="m 347.40675,169.05136 65.08904,0 0,0 0,0" style="fill:none;stroke:#000;stroke-width:11.35849667;stroke-linecap:butt;stroke-linejoin:miter;stroke-miterlimit:4;stroke-opacity:1;stroke-dasharray:none"/><path id="path3779-1-5" d="m 380.77635,136.50683 0,65.08904 0,0 0,0" style="fill:none;stroke:#000;stroke-width:11.35849667;stroke-linecap:butt;stroke-linejoin:miter;stroke-miterlimit:4;stroke-opacity:1;stroke-dasharray:none"/></g><path style="fill:none;stroke:#000;stroke-width:3.46658015;stroke-linecap:butt;stroke-linejoin:miter;stroke-miterlimit:4;stroke-opacity:1;stroke-dasharray:none;stroke-dashoffset:0;marker-end:url(#Arrow1Lend)" id="path3779-13" d="m 437.47386,525.92599 33.2101,0 0,0 0,0"/><path style="fill:none;stroke:#000;stroke-width:3.46658015;stroke-linecap:butt;stroke-linejoin:miter;stroke-miterlimit:4;stroke-opacity:1;stroke-dasharray:none;stroke-dashoffset:0;marker-start:url(#Arrow1Lstart);marker-end:none" id="path3779-13-4" d="m 371.31694,354.29995 0,33.21012 0,0 0,0"/><path style="fill:none;stroke:#000;stroke-width:3.46658015;stroke-linecap:butt;stroke-linejoin:miter;stroke-miterlimit:4;stroke-opacity:1;stroke-dasharray:none;stroke-dashoffset:0;marker-start:url(#Arrow1Lstart);marker-end:none" id="path3779-13-4-3" d="m 371.31694,697.55199 0,-33.2101 0,0 0,0"/><path style="fill:none;stroke:#000;stroke-width:3.46658015;stroke-linecap:butt;stroke-linejoin:miter;stroke-miterlimit:4;stroke-opacity:1;stroke-dasharray:none;stroke-dashoffset:0;marker-start:url(#Arrow1Lstart);marker-end:none" id="path3779-13-4-3-0" d="m 271.29507,525.92599 33.21012,0 0,0 0,0"/><g id="g4768" transform="matrix(0.58677243,0,0,0.58677243,150.00383,347.06137)"><path id="path2991-1-8" d="m 287.14286,292.36218 c 0,46.54972 -37.736,84.28572 -84.28571,84.28572 -46.54972,0 -84.28572,-37.736 -84.28572,-84.28572 0,-46.54971 37.736,-84.28571 84.28572,-84.28571 46.54971,0 84.28571,37.736 84.28571,84.28571 z" transform="matrix(0.64172294,0,0,0.64172294,246.99219,117.21239)" style="fill:none;stroke:#000;stroke-width:31;stroke-linecap:butt;stroke-linejoin:miter;stroke-miterlimit:4;stroke-opacity:1;stroke-dasharray:none"/><path id="path3779-1-6" d="m 355.40258,328.02161 43.71875,-48.2209 0,0 0,0" style="fill:none;stroke:#000;stroke-width:11.35849667;stroke-linecap:butt;stroke-linejoin:miter;stroke-miterlimit:4;stroke-opacity:1;stroke-dasharray:none"/><path id="path3779-1-5-0" d="m 353.70568,281.44053 48.2209,43.71875 0,0 0,0" style="fill:none;stroke:#000;stroke-width:11.35849667;stroke-linecap:butt;stroke-linejoin:miter;stroke-miterlimit:4;stroke-opacity:1;stroke-dasharray:none"/></g><rect style="fill:none;stroke-width:9.1208992;stroke-miterlimit:4;stroke-dasharray:none;stroke-dashoffset:0" id="rect4835" width="245.39" height="394.165" x="230.984" y="314.509"/><rect style="opacity:.28451885;fill:#000;fill-opacity:1;stroke:#000;stroke-width:2.19689965;stroke-miterlimit:4;stroke-opacity:1;stroke-dasharray:none;stroke-dashoffset:0" id="rect3020" width="321.852" height="537.134" x="207.275" y="243.261"/></g></svg>